<svg width="153" height="13" viewBox="0 0 153 13" fill="none" xmlns="http://www.w3.org/2000/svg">
<path d="M10.903 9.376L11.399 10.656C11.655 11.184 11.447 11.472 10.967 11.568V11.968H14.935V11.568C14.343 11.424 14.071 10.912 13.831 10.432L10.199 1.696C10.039 1.344 9.95901 0.96 10.663 0.783999V0.384H4.98301V0.783999C5.63901 0.96 5.60701 1.312 5.44701 1.664L1.79901 10.432C1.55901 10.912 1.28701 11.424 0.695007 11.568V11.968H4.66301V11.568C4.18301 11.472 4.02301 11.184 4.27901 10.656L4.74301 9.376H10.903ZM10.231 7.616H5.41501L7.44701 2.368H8.18301L10.231 7.616Z" fill="black"/>
<path d="M25.602 9.344H25.202C25.122 9.744 24.978 9.904 24.562 9.904H19.186V1.44C19.186 0.992 19.282 0.896 19.698 0.783999V0.384H16.05V0.783999C16.418 0.896 16.594 1.024 16.594 1.44V10.928C16.594 11.36 16.45 11.472 16.05 11.568V11.968H24.562C24.994 11.968 25.122 12.032 25.202 12.352H25.602V9.344Z" fill="black"/>
<path d="M36.3486 3.904C36.3486 4.944 35.4206 5.552 33.4366 5.552H30.0286V2.32H33.3406C35.5166 2.32 36.3486 2.864 36.3486 3.904ZM38.7806 3.888C38.7806 1.76 37.0526 0.384 34.0286 0.384H26.9406V0.783999C27.4366 0.88 27.4846 1.024 27.4846 1.424V10.912C27.4846 11.44 27.3086 11.488 26.9406 11.568V11.968H30.5726V11.568C30.1566 11.472 30.0286 11.376 30.0286 10.928V7.52H34.3326C37.0686 7.52 38.7806 6.048 38.7806 3.888Z" fill="black"/>
<path d="M48.028 9.376L48.524 10.656C48.78 11.184 48.572 11.472 48.092 11.568V11.968H52.06V11.568C51.468 11.424 51.196 10.912 50.956 10.432L47.324 1.696C47.164 1.344 47.084 0.96 47.788 0.783999V0.384H42.108V0.783999C42.764 0.96 42.732 1.312 42.572 1.664L38.924 10.432C38.684 10.912 38.412 11.424 37.82 11.568V11.968H41.788V11.568C41.308 11.472 41.148 11.184 41.404 10.656L41.868 9.376H48.028ZM47.356 7.616H42.54L44.572 2.368H45.308L47.356 7.616Z" fill="black"/>
<path d="M64.134 7.856L63.798 8.064C63.878 8.256 63.942 8.496 63.814 8.656C63.366 9.216 61.382 10.304 59.494 10.304C56.79 10.304 54.966 8.528 54.966 6.08C54.966 3.792 56.79 2.096 59.43 2.096C61.366 2.096 63.446 2.976 63.446 3.616L63.366 3.824L63.718 4.032L65.43 1.28L65.094 1.056C64.918 1.232 64.598 1.216 64.406 1.152C63.91 0.992 61.734 0.0640001 59.494 0.0640001C55.222 0.0640001 52.39 2.656 52.39 6.208C52.39 9.712 55.318 12.32 59.206 12.32C61.382 12.32 63.446 11.616 65.078 10.576C65.206 10.496 65.366 10.608 65.542 10.736L65.862 10.528L64.134 7.856Z" fill="black"/>
<path d="M76.8718 9.376L77.3678 10.656C77.6238 11.184 77.4158 11.472 76.9358 11.568V11.968H80.9038V11.568C80.3118 11.424 80.0398 10.912 79.7998 10.432L76.1678 1.696C76.0078 1.344 75.9278 0.96 76.6318 0.783999V0.384H70.9518V0.783999C71.6078 0.96 71.5758 1.312 71.4158 1.664L67.7678 10.432C67.5278 10.912 67.2558 11.424 66.6638 11.568V11.968H70.6318V11.568C70.1518 11.472 69.9918 11.184 70.2478 10.656L70.7118 9.376H76.8718ZM76.1998 7.616H71.3838L73.4158 2.368H74.1518L76.1998 7.616Z" fill="black"/>
<path d="M98.3238 8.336C98.3238 6.912 97.2038 5.92 95.8598 5.472C94.5478 5.056 93.1878 5.088 91.6198 4.976C90.7878 4.944 89.3318 4.72 89.3318 3.568C89.3318 2.336 91.2998 2.08 92.1638 2.08C93.3478 2.08 95.1238 2.368 96.0198 3.216C96.1958 3.408 96.2598 3.568 96.2598 3.808L96.6918 4.016L98.1318 1.248L97.7638 1.056C97.4118 1.328 97.1878 1.28 96.6118 1.008C95.0118 0.32 93.5078 0.112 92.1638 0.112C88.8998 0.112 86.7078 1.664 86.7078 3.984C86.7078 4.944 87.0278 5.744 87.7318 6.272C89.0278 7.248 91.0278 7.264 92.5958 7.312C94.5638 7.408 95.5398 7.92 95.5398 8.656C95.5398 9.952 93.3478 10.176 92.4358 10.176C91.2358 10.176 89.2038 9.856 88.2598 9.152C88.0518 8.992 88.0198 8.752 88.0838 8.544L87.6358 8.384L86.3718 11.248L86.8358 11.44C87.0598 11.136 87.3318 11.184 87.6518 11.328C89.1398 12.032 90.7238 12.24 92.3558 12.24C94.6758 12.24 98.3238 11.264 98.3238 8.336Z" fill="black"/>
<path d="M108.966 9.376L109.462 10.656C109.718 11.184 109.51 11.472 109.03 11.568V11.968H112.998V11.568C112.406 11.424 112.134 10.912 111.894 10.432L108.262 1.696C108.102 1.344 108.022 0.96 108.726 0.783999V0.384H103.046V0.783999C103.702 0.96 103.67 1.312 103.51 1.664L99.8615 10.432C99.6215 10.912 99.3495 11.424 98.7575 11.568V11.968H102.726V11.568C102.246 11.472 102.086 11.184 102.342 10.656L102.806 9.376H108.966ZM108.294 7.616H103.478L105.51 2.368H106.246L108.294 7.616Z" fill="black"/>
<path d="M123.665 9.344H123.265C123.185 9.744 123.041 9.904 122.625 9.904H117.249V1.44C117.249 0.992 117.345 0.896 117.761 0.783999V0.384H114.113V0.783999C114.481 0.896 114.657 1.024 114.657 1.44V10.928C114.657 11.36 114.513 11.472 114.113 11.568V11.968H122.625C123.057 11.968 123.185 12.032 123.265 12.352H123.665V9.344Z" fill="black"/>
<path d="M138.358 6.176C138.358 2.448 135.126 0 131.526 0C127.83 0 124.406 2.288 124.406 6.176C124.406 9.952 127.718 12.352 131.35 12.352C135.014 12.352 138.358 10 138.358 6.176ZM135.942 6.176C135.942 8.704 133.894 10.432 131.35 10.432C128.838 10.432 126.822 8.672 126.822 6.176C126.822 3.648 128.838 1.92 131.35 1.92C133.894 1.92 135.942 3.648 135.942 6.176Z" fill="black"/>
<path d="M152.786 11.568C152.354 11.472 152.258 11.328 152.258 10.928V1.424C152.258 1.056 152.306 0.927999 152.786 0.783999V0.384H149.49V0.783999C150.034 0.944 150.034 1.04 150.034 1.424V8.128L143.874 1.632C143.73 1.504 143.602 1.328 143.602 1.12C143.602 0.912 143.698 0.816 143.89 0.783999V0.384H140.034V0.783999C140.482 0.88 140.578 1.008 140.578 1.424V10.928C140.578 11.312 140.514 11.456 140.034 11.568V11.968H143.346V11.568C142.882 11.424 142.818 11.328 142.818 10.928V3.984L149.298 10.704C149.618 11.056 149.842 11.504 149.314 11.568V11.968H152.786V11.568Z" fill="black"/>
</svg>
